HIERARCHY
ROOT hips
{
	OFFSET 0.000000 104.274902 0.000000
	CHANNELS 6 Xposition Yposition Zposition Xrotation Yrotation Zrotation
	JOINT spine
	{
		OFFSET 0.000000 10.181549 0.131524
		CHANNELS 6 Xposition Yposition Zposition Xrotation Yrotation Zrotation
		JOINT chest
		{
			OFFSET 0.000000 9.893990 -1.470706
			CHANNELS 3 Xrotation Yrotation Zrotation
			JOINT upperChest
			{
				OFFSET 0.000000 9.220787 -1.370637
				CHANNELS 3 Xrotation Yrotation Zrotation
				JOINT neck
				{
					OFFSET 0.000000 16.740372 -2.049022
					CHANNELS 6 Xposition Yposition Zposition Xrotation Yrotation Zrotation
					JOINT head
					{
						OFFSET 0.000000 9.617859 1.684976
						CHANNELS 6 Xposition Yposition Zposition Xrotation Yrotation Zrotation
						JOINT headEnd
						{
							OFFSET 0.000000 22.037384 7.501072
							CHANNELS 6 Xposition Yposition Zposition Xrotation Yrotation Zrotation
							End Site
							{
								OFFSET 0.000000 23.106567 -2.828246
							}
						}
					}
				}
				JOINT rightShoulder
				{
					OFFSET -4.570000 11.014877 -2.160840
					CHANNELS 6 Xposition Yposition Zposition Xrotation Yrotation Zrotation
					JOINT rightUpperArm
					{
						OFFSET -10.592867 -0.524796 -2.232105
						CHANNELS 3 Xrotation Yrotation Zrotation
						JOINT rightLowerArm
						{
							OFFSET -27.841497 0.000000 -0.000002
							CHANNELS 3 Xrotation Yrotation Zrotation
							JOINT rightHand
							{
								OFFSET -28.328812 0.000000 -0.000001
								CHANNELS 3 Xrotation Yrotation Zrotation
								JOINT rightThumbProximal
								{
									OFFSET -2.464798 -1.573990 2.681911
									CHANNELS 6 Xposition Yposition Zposition Xrotation Yrotation Zrotation
									JOINT rightThumbIntermediate
									{
										OFFSET -3.244781 -1.873383 1.873376
										CHANNELS 3 Xrotation Yrotation Zrotation
										JOINT rightThumbDistal
										{
											OFFSET -2.646263 -1.527817 1.527818
											CHANNELS 6 Xposition Yposition Zposition Xrotation Yrotation Zrotation
											JOINT rightHandThumb4
											{
												OFFSET -1.994591 -1.151581 1.151575
												CHANNELS 6 Xposition Yposition Zposition Xrotation Yrotation Zrotation
												End Site
												{
													OFFSET -1.860176 -1.142715 1.365483
												}
											}
										}
									}
								}
								JOINT rightIndexProximal
								{
									OFFSET -9.108299 -0.517883 2.259803
									CHANNELS 6 Xposition Yposition Zposition Xrotation Yrotation Zrotation
									JOINT rightIndexIntermediate
									{
										OFFSET -3.699997 0.000000 0.000000
										CHANNELS 3 Xrotation Yrotation Zrotation
										JOINT rightIndexDistal
										{
											OFFSET -2.850006 0.000000 0.000000
											CHANNELS 3 Xrotation Yrotation Zrotation
											JOINT rightHandIndex4
											{
												OFFSET -2.772194 0.000000 0.000000
												CHANNELS 3 Xrotation Yrotation Zrotation
												End Site
												{
													OFFSET -2.772202 0.000000 -0.000484
												}
											}
										}
									}
								}
								JOINT rightMiddleProximal
								{
									OFFSET -9.532501 0.000000 -0.000000
									CHANNELS 6 Xposition Yposition Zposition Xrotation Yrotation Zrotation
									JOINT rightMiddleIntermediate
									{
										OFFSET -3.699997 0.000000 0.000000
										CHANNELS 3 Xrotation Yrotation Zrotation
										JOINT rightMiddleDistal
										{
											OFFSET -2.949997 0.000000 0.000000
											CHANNELS 3 Xrotation Yrotation Zrotation
											JOINT rightHandMiddle4
											{
												OFFSET -2.946594 0.000000 0.000000
												CHANNELS 3 Xrotation Yrotation Zrotation
												End Site
												{
													OFFSET -2.946602 0.000000 -0.000982
												}
											}
										}
									}
								}
								JOINT rightRingProximal
								{
									OFFSET -9.103600 -0.043106 -1.865100
									CHANNELS 6 Xposition Yposition Zposition Xrotation Yrotation Zrotation
									JOINT rightRingIntermediate
									{
										OFFSET -3.379303 0.000000 0.000000
										CHANNELS 3 Xrotation Yrotation Zrotation
										JOINT rightRingDistal
										{
											OFFSET -2.889694 0.000000 0.000000
											CHANNELS 3 Xrotation Yrotation Zrotation
											JOINT rightHandRing4
											{
												OFFSET -2.638802 0.000000 0.000000
												CHANNELS 3 Xrotation Yrotation Zrotation
												End Site
												{
													OFFSET -2.638802 0.000000 0.004218
												}
											}
										}
									}
								}
								JOINT rightLittleProximal
								{
									OFFSET -8.076698 -0.486725 -3.806299
									CHANNELS 6 Xposition Yposition Zposition Xrotation Yrotation Zrotation
									JOINT rightLittleIntermediate
									{
										OFFSET -3.600006 0.000000 0.000000
										CHANNELS 3 Xrotation Yrotation Zrotation
										JOINT rightLittleDistal
										{
											OFFSET -2.099998 0.000000 0.000000
											CHANNELS 3 Xrotation Yrotation Zrotation
											JOINT rightHandPinky4
											{
												OFFSET -2.115791 0.000000 0.000000
												CHANNELS 3 Xrotation Yrotation Zrotation
												End Site
												{
													OFFSET -2.115799 0.000000 0.000174
												}
											}
										}
									}
								}
							}
						}
					}
				}
				JOINT leftShoulder
				{
					OFFSET 4.570400 11.014679 -2.160816
					CHANNELS 6 Xposition Yposition Zposition Xrotation Yrotation Zrotation
					JOINT leftUpperArm
					{
						OFFSET 10.592373 -0.524597 -2.232116
						CHANNELS 3 Xrotation Yrotation Zrotation
						JOINT leftLowerArm
						{
							OFFSET 27.841488 0.000000 0.000001
							CHANNELS 3 Xrotation Yrotation Zrotation
							JOINT leftHand
							{
								OFFSET 28.328808 0.000000 -0.000000
								CHANNELS 3 Xrotation Yrotation Zrotation
								JOINT leftThumbProximal
								{
									OFFSET 2.466103 -1.576202 2.681698
									CHANNELS 6 Xposition Yposition Zposition Xrotation Yrotation Zrotation
									JOINT leftThumbIntermediate
									{
										OFFSET 3.243317 -1.872528 1.872530
										CHANNELS 3 Xrotation Yrotation Zrotation
										JOINT leftThumbDistal
										{
											OFFSET 2.647881 -1.528763 1.528754
											CHANNELS 6 Xposition Yposition Zposition Xrotation Yrotation Zrotation
											JOINT leftHandThumb4
											{
												OFFSET 1.998924 -1.154083 1.154080
												CHANNELS 6 Xposition Yposition Zposition Xrotation Yrotation Zrotation
												End Site
												{
													OFFSET 1.884041 -1.149155 1.337651
												}
											}
										}
									}
								}
								JOINT leftIndexProximal
								{
									OFFSET 9.109299 -0.518005 2.259900
									CHANNELS 6 Xposition Yposition Zposition Xrotation Yrotation Zrotation
									JOINT leftIndexIntermediate
									{
										OFFSET 3.699997 0.000000 0.000000
										CHANNELS 3 Xrotation Yrotation Zrotation
										JOINT leftIndexDistal
										{
											OFFSET 2.850006 0.000000 0.000000
											CHANNELS 3 Xrotation Yrotation Zrotation
											JOINT leftHandIndex4
											{
												OFFSET 2.774895 0.000000 0.000000
												CHANNELS 3 Xrotation Yrotation Zrotation
												End Site
												{
													OFFSET 2.774902 0.000000 -0.000072
												}
											}
										}
									}
								}
								JOINT leftMiddleProximal
								{
									OFFSET 9.533401 0.000000 0.000000
									CHANNELS 6 Xposition Yposition Zposition Xrotation Yrotation Zrotation
									JOINT leftMiddleIntermediate
									{
										OFFSET 3.699997 0.000000 0.000000
										CHANNELS 3 Xrotation Yrotation Zrotation
										JOINT leftMiddleDistal
										{
											OFFSET 2.949997 0.000000 0.000000
											CHANNELS 3 Xrotation Yrotation Zrotation
											JOINT leftHandMiddle4
											{
												OFFSET 2.952896 0.000000 0.000000
												CHANNELS 3 Xrotation Yrotation Zrotation
												End Site
												{
													OFFSET 2.952904 0.000000 0.000165
												}
											}
										}
									}
								}
								JOINT leftRingProximal
								{
									OFFSET 9.104500 -0.042999 -1.865101
									CHANNELS 6 Xposition Yposition Zposition Xrotation Yrotation Zrotation
									JOINT leftRingIntermediate
									{
										OFFSET 3.149994 0.000000 0.000000
										CHANNELS 3 Xrotation Yrotation Zrotation
										JOINT leftRingDistal
										{
											OFFSET 2.950005 0.000000 0.000000
											CHANNELS 3 Xrotation Yrotation Zrotation
											JOINT leftHandRing4
											{
												OFFSET 2.644302 0.000000 0.000000
												CHANNELS 3 Xrotation Yrotation Zrotation
												End Site
												{
													OFFSET 2.644302 0.000000 0.000083
												}
											}
										}
									}
								}
								JOINT leftLittleProximal
								{
									OFFSET 8.077805 -0.486893 -3.806302
									CHANNELS 6 Xposition Yposition Zposition Xrotation Yrotation Zrotation
									JOINT leftLittleIntermediate
									{
										OFFSET 3.600006 0.000000 0.000000
										CHANNELS 3 Xrotation Yrotation Zrotation
										JOINT leftLittleDistal
										{
											OFFSET 2.099998 0.000000 0.000000
											CHANNELS 3 Xrotation Yrotation Zrotation
											JOINT leftHandPinky4
											{
												OFFSET 2.125496 0.000000 0.000000
												CHANNELS 3 Xrotation Yrotation Zrotation
												End Site
												{
													OFFSET 2.125504 0.000000 -0.001254
												}
											}
										}
									}
								}
							}
						}
					}
				}
			}
		}
	}
	JOINT rightUpperLeg
	{
		OFFSET -8.207800 -6.751701 -1.599544
		CHANNELS 6 Xposition Yposition Zposition Xrotation Yrotation Zrotation
		JOINT rightLowerLeg
		{
			OFFSET 0.000004 -44.370152 0.345934
			CHANNELS 3 Xrotation Yrotation Zrotation
			JOINT rightFoot
			{
				OFFSET 0.000004 -44.423664 -3.043535
				CHANNELS 3 Xrotation Yrotation Zrotation
				JOINT rightToes
				{
					OFFSET 0.000001 -8.728691 10.710592
					CHANNELS 3 Xrotation Yrotation Zrotation
					JOINT rightToesEnd
					{
						OFFSET 0.000000 -0.000665 9.278101
						CHANNELS 3 Xrotation Yrotation Zrotation
						End Site
						{
							OFFSET 0.000000 -0.000665 9.278103
						}
					}
				}
			}
		}
	}
	JOINT leftUpperLeg
	{
		OFFSET 8.207800 -6.751701 -1.599544
		CHANNELS 6 Xposition Yposition Zposition Xrotation Yrotation Zrotation
		JOINT leftLowerLeg
		{
			OFFSET 0.000004 -44.370037 0.346940
			CHANNELS 3 Xrotation Yrotation Zrotation
			JOINT leftFoot
			{
				OFFSET 0.000004 -44.423611 -3.044388
				CHANNELS 3 Xrotation Yrotation Zrotation
				JOINT leftToes
				{
					OFFSET 0.000001 -8.728690 10.710592
					CHANNELS 3 Xrotation Yrotation Zrotation
					JOINT leftToesEnd
					{
						OFFSET 0.000000 -0.000680 9.278101
						CHANNELS 3 Xrotation Yrotation Zrotation
						End Site
						{
							OFFSET 0.000000 -0.000680 9.278101
						}
					}
				}
			}
		}
	}
}
MOTION
Frames: 4
Frame Time: 0.033333
-17.505375 99.505463 10.187162 7.627848 -5.518128 4.014550 0.000001 10.181534 0.131523 -4.619551 -1.485029 0.819203 0.992595 -0.226129 -1.664084 0.987680 -0.213741 -1.669442 0.000001 16.740376 -2.049022 1.045282 0.473946 5.058583 -0.000004 9.617836 1.684981 -22.481571 12.301897 -11.164791 -0.000005 22.037399 7.501089 0.000002 0.000000 0.000001 -4.570004 11.014874 -2.160839 -5.126562 -14.043739 -24.542622 -71.577125 25.140675 12.245996 0.000003 13.079400 0.000008 43.087016 -0.214384 -7.464604 -2.464806 -1.573985 2.681904 -18.160715 -13.356735 -5.634214 4.916894 -11.673568 -0.444045 -2.646277 -1.527800 1.527813 -0.436665 -9.317692 -3.073244 -1.994608 -1.151588 1.151600 0.000003 -0.000007 -0.000005 -9.108301 -0.517886 2.259803 -0.130176 4.510978 1.905475 0.101467 -1.185922 9.780047 0.098720 -1.169861 9.646295 -0.000002 0.000002 0.000003 -9.532510 0.000000 -0.000002 0.022923 -0.565278 4.643703 0.201451 -1.664860 13.798161 0.197590 -1.649048 13.664365 -0.000001 -0.000001 0.000000 -9.103601 -0.043096 -1.865104 0.139697 -1.389561 11.481195 0.427780 -2.405548 20.164356 0.422180 -2.390251 20.030433 0.000001 -0.000001 0.000001 -8.076695 -0.486719 -3.806302 1.990341 -8.507361 14.265335 0.585766 -2.798058 23.643378 0.579234 -2.783110 23.509363 0.000000 -0.000001 0.000000 4.570400 11.014675 -2.160815 1.346847 -10.739051 2.121950 27.056855 -10.283949 -59.398556 0.000011 -12.282856 0.000002 30.615012 -1.602454 6.044434 2.466098 -1.576197 2.681695 -23.747403 24.860733 3.845280 4.009863 8.774955 0.812067 2.647892 -1.528735 1.528756 0.306298 11.652243 3.490878 1.998925 -1.154095 1.154081 0.000005 0.000005 -0.000000 9.109300 -0.518011 2.259894 -0.100969 -9.731758 -1.185961 0.097511 1.157092 -9.634550 0.097495 1.157091 -9.634562 0.000001 0.000003 -0.000000 9.533402 -0.000001 0.000000 0.004545 0.251037 -2.080663 0.142532 1.396589 -11.654849 0.142128 1.394676 -11.638873 0.000000 0.000001 -0.000001 9.104511 -0.042999 -1.865105 0.018146 0.500816 -4.153624 0.472888 2.512194 -21.318540 0.472868 2.512193 -21.318532 0.000001 0.000002 -0.000005 8.077808 -0.486893 -3.806305 3.154895 12.512897 -14.635086 0.175707 -2.489803 -13.591475 0.179723 1.566083 -13.093936 0.000002 0.000001 -0.000005 -8.207800 -6.751725 -1.599541 -19.175799 5.870201 -13.239982 25.570883 -4.575627 -2.602337 -12.153797 -2.323364 14.485986 -0.000029 -0.000001 0.000002 -0.000000 0.000000 0.000000 8.207802 -6.751708 -1.599544 -20.351346 18.082058 16.348608 27.444919 8.697668 2.542013 5.140771 0.076340 -18.221620 -16.948527 -0.000012 -0.000000 0.000000 -0.000001 -0.000000 
-16.261215 99.090683 10.151524 7.520977 -6.921094 9.013658 -0.000002 10.181550 0.131520 -4.398629 -0.372588 -1.775610 1.131549 -0.139528 -3.046115 1.130181 -0.110158 -3.048261 -0.000001 16.740337 -2.049019 1.160490 0.812849 4.623519 -0.000002 9.617851 1.684981 -21.357617 13.166888 -10.139063 0.000001 22.037384 7.501071 0.000001 0.000000 0.000001 -4.570000 11.014860 -2.160841 -5.074646 -13.866807 -24.617023 -74.539890 26.180486 13.968125 -0.000001 16.896310 0.000016 43.201206 2.947167 -10.323961 -2.464803 -1.574003 2.681912 -18.160717 -13.356734 -5.634207 4.916890 -11.673560 -0.444040 -2.646249 -1.527790 1.527810 -0.436673 -9.317688 -3.073250 -1.994599 -1.151587 1.151569 0.000003 -0.000003 0.000003 -9.108294 -0.517867 2.259802 -0.132976 4.506550 1.941178 0.102195 -1.190198 9.815682 0.099449 -1.174142 9.681912 0.000001 -0.000000 0.000001 -9.532513 -0.000006 -0.000001 0.023268 -0.569603 4.679302 0.202496 -1.669081 13.833790 0.198605 -1.653255 13.700003 0.000000 0.000004 -0.000000 -9.103608 -0.043109 -1.865100 0.140567 -1.393815 11.516811 0.429275 -2.409617 20.200015 0.423668 -2.394327 20.066092 0.000000 0.000002 0.000001 -8.076715 -0.486732 -3.806299 1.995688 -8.510457 14.301448 0.587499 -2.802023 23.679064 0.580971 -2.787095 23.545042 0.000000 0.000000 0.000000 4.570398 11.014681 -2.160817 1.279457 -10.196057 1.957643 24.891834 -6.314304 -59.337111 -0.000016 -12.222995 -0.000007 33.598086 -1.662104 6.059148 2.466115 -1.576207 2.681697 -23.747398 24.860750 3.845280 4.009865 8.774951 0.812068 2.647877 -1.528738 1.528738 0.306294 11.652240 3.490878 1.998921 -1.154090 1.154074 0.000004 0.000000 0.000001 9.109311 -0.518011 2.259891 -0.100964 -9.731748 -1.185951 0.097509 1.157092 -9.634552 0.097494 1.157091 -9.634561 -0.000001 -0.000000 0.000001 9.533406 0.000004 -0.000006 0.004562 0.251038 -2.080670 0.142511 1.396562 -11.654850 0.142138 1.394690 -11.638869 0.000001 -0.000001 0.000001 9.104516 -0.043005 -1.865106 0.018147 0.500808 -4.153625 0.472892 2.512215 -21.318550 0.472873 2.512197 -21.318538 0.000000 0.000004 -0.000006 8.077808 -0.486888 -3.806305 3.154903 12.512898 -14.635075 0.175712 -2.489799 -13.591477 0.179720 1.566099 -13.093912 0.000000 -0.000002 -0.000003 -8.207801 -6.751706 -1.599543 -21.370996 5.332375 -17.664394 28.507062 -0.626763 -5.900840 -13.292892 -2.729616 16.273954 -1.195410 -0.000000 -0.000000 0.000000 -0.000001 0.000000 8.207798 -6.751694 -1.599546 -18.102928 17.965998 10.644933 28.831386 10.400215 0.900936 5.017381 1.211241 -17.225500 -17.952777 0.000000 -0.000006 0.000000 0.000000 0.000000 
-15.535982 98.465462 10.136914 6.298421 -7.995086 13.848232 0.000003 10.181547 0.131521 -3.724415 0.576465 -4.630423 1.820017 -0.103002 -4.644904 1.822714 -0.056196 -4.644515 0.000000 16.740349 -2.049020 1.084286 1.167384 4.143160 0.000002 9.617861 1.684976 -20.466817 13.926956 -8.773500 -0.000005 22.037399 7.501074 -0.000003 0.000001 0.000001 -4.569998 11.014848 -2.160840 -4.758062 -13.077433 -24.133507 -78.039863 24.712717 14.915863 -0.000005 24.218391 0.000025 44.777518 7.129847 -14.165963 -2.464776 -1.573984 2.681910 -18.160720 -13.356731 -5.634212 4.916890 -11.673560 -0.444043 -2.646258 -1.527813 1.527821 -0.436669 -9.317690 -3.073243 -1.994610 -1.151575 1.151572 -0.000003 -0.000006 0.000005 -9.108278 -0.517880 2.259803 -0.156484 4.469306 2.241464 0.108520 -1.226134 10.115251 0.105667 -1.210097 9.981508 0.000000 -0.000000 -0.000001 -9.532487 0.000018 0.000000 0.026335 -0.605958 4.978769 0.211325 -1.704497 14.133538 0.207359 -1.688700 13.999709 0.000000 -0.000002 -0.000001 -9.103585 -0.043095 -1.865105 0.147932 -1.429556 11.816456 0.441993 -2.443845 20.500026 0.436283 -2.428568 20.366080 -0.000001 0.000003 0.000001 -8.076690 -0.486744 -3.806299 2.040727 -8.536382 14.605376 0.602275 -2.835402 23.979257 0.595639 -2.820503 23.845218 -0.000000 0.000000 -0.000000 4.570401 11.014674 -2.160815 1.217427 -9.735241 1.710380 21.542335 -1.923094 -58.674720 0.000004 -12.291329 -0.000008 37.214965 -1.669973 5.976380 2.466107 -1.576205 2.681708 -23.747401 24.860736 3.845282 4.009868 8.774951 0.812072 2.647887 -1.528733 1.528741 0.306295 11.652246 3.490873 1.998931 -1.154091 1.154071 0.000003 -0.000003 0.000003 9.109322 -0.518013 2.259904 -0.100974 -9.731756 -1.185973 0.097509 1.157090 -9.634553 0.097492 1.157090 -9.634562 -0.000001 -0.000002 -0.000001 9.533422 0.000000 0.000007 0.004570 0.251034 -2.080664 0.142496 1.396574 -11.654844 0.142143 1.394698 -11.638882 0.000001 0.000000 -0.000001 9.104516 -0.042991 -1.865099 0.018151 0.500812 -4.153638 0.472878 2.512199 -21.318528 0.472887 2.512196 -21.318559 -0.000004 0.000002 -0.000000 8.077816 -0.486890 -3.806298 3.154903 12.512894 -14.635072 0.175701 -2.489813 -13.591486 0.179714 1.566097 -13.093912 -0.000003 0.000005 -0.000002 -8.207800 -6.751690 -1.599542 -23.832236 3.477248 -21.969807 33.274708 4.724209 -9.453280 -15.470163 -3.015492 16.651229 -2.486372 0.000004 0.000005 -0.000000 -0.000001 0.000000 8.207801 -6.751706 -1.599544 -14.954788 15.594594 4.761510 30.158943 10.213009 -0.787307 5.354372 4.972588 -17.489594 -19.306218 0.000003 0.000002 0.000000 -0.000001 0.000000 
-15.340859 97.738304 10.115911 3.482548 -8.435081 17.165683 -0.000002 10.181535 0.131521 -2.257977 0.661722 -7.092304 2.959725 -0.191557 -6.015064 2.960240 -0.133740 -6.016611 -0.000000 16.740368 -2.049021 0.991106 1.487645 3.726481 -0.000002 9.617853 1.684978 -19.887008 14.586574 -7.402146 -0.000003 22.037384 7.501076 0.000000 0.000000 0.000000 -4.570001 11.014880 -2.160841 -4.286874 -11.869335 -23.406170 -81.599075 21.222151 15.247854 -0.000015 35.284149 0.000039 46.114961 10.346047 -17.017691 -2.464823 -1.573997 2.681912 -18.160717 -13.356735 -5.634209 4.916894 -11.673561 -0.444042 -2.646270 -1.527814 1.527810 -0.436666 -9.317687 -3.073237 -1.994613 -1.151586 1.151581 0.000000 -0.000005 -0.000000 -9.108321 -0.517907 2.259805 -0.192538 4.411282 2.707207 0.118708 -1.281835 10.579992 0.115721 -1.265805 10.446232 -0.000003 0.000002 0.000002 -9.532531 -0.000006 0.000000 0.031496 -0.662335 5.443367 0.225359 -1.759337 14.598448 0.221274 -1.743562 14.464625 0.000001 0.000002 -0.000000 -9.103621 -0.043104 -1.865096 0.159775 -1.484919 12.281271 0.462039 -2.496774 20.965399 0.456222 -2.481560 20.831435 0.000002 0.000003 0.000002 -8.076718 -0.486726 -3.806291 2.110892 -8.576122 15.076866 0.625516 -2.887045 24.444926 0.618786 -2.872196 24.310880 -0.000000 0.000000 0.000002 4.570399 11.014691 -2.160817 1.184926 -9.580807 1.381651 17.393447 2.018442 -57.281948 -0.000008 -12.527346 -0.000003 40.841826 -1.650594 5.807113 2.466104 -1.576207 2.681709 -23.747412 24.860748 3.845283 4.009867 8.774951 0.812068 2.647884 -1.528737 1.528745 0.306295 11.652246 3.490877 1.998924 -1.154099 1.154072 -0.000003 -0.000003 0.000003 9.109311 -0.518007 2.259906 -0.100971 -9.731749 -1.185969 0.097510 1.157092 -9.634550 0.097493 1.157088 -9.634563 0.000003 -0.000003 -0.000001 9.533408 0.000012 0.000006 0.004561 0.251046 -2.080665 0.142514 1.396582 -11.654865 0.142131 1.394679 -11.638869 -0.000000 -0.000001 0.000001 9.104508 -0.042992 -1.865089 0.018152 0.500828 -4.153627 0.472879 2.512202 -21.318537 0.472878 2.512211 -21.318523 -0.000004 0.000003 -0.000002 8.077808 -0.486903 -3.806296 3.154902 12.512897 -14.635084 0.175710 -2.489780 -13.591465 0.179736 1.566078 -13.093931 -0.000001 0.000003 -0.000001 -8.207807 -6.751716 -1.599539 -24.444188 3.003034 -26.113586 38.853702 7.476488 -9.835715 -18.250952 -2.474447 14.913699 -2.583115 0.000000 -0.000011 0.000000 -0.000000 -0.000000 8.207796 -6.751709 -1.599548 -11.600278 12.109247 0.477627 31.709307 9.996431 -2.067276 5.475763 7.847484 -18.335281 -20.431433 0.000001 0.000008 0.000000 0.000001 0.000000 
